<?xml version="1.0" encoding="UTF-8" standalone="no"?>
<svg
   id="splitsvg"
   version="1.1"
   width="512"
   height="512"
   sodipodi:docname="browsertoplogo.svg"
   inkscape:version="1.1.2 (b8e25be833, 2022-02-05)"
   xmlns:inkscape="http://www.inkscape.org/namespaces/inkscape"
   xmlns:sodipodi="http://sodipodi.sourceforge.net/DTD/sodipodi-0.dtd"
   xmlns="http://www.w3.org/2000/svg"
   xmlns:svg="http://www.w3.org/2000/svg">
  <defs
     id="defs15" />
  <sodipodi:namedview
     id="namedview13"
     pagecolor="#ffffff"
     bordercolor="#666666"
     borderopacity="1.0"
     inkscape:pageshadow="2"
     inkscape:pageopacity="0.0"
     inkscape:pagecheckerboard="0"
     showgrid="false"
     inkscape:zoom="0.65984848"
     inkscape:cx="591.80253"
     inkscape:cy="580.43628"
     inkscape:window-width="1920"
     inkscape:window-height="1057"
     inkscape:window-x="-8"
     inkscape:window-y="-8"
     inkscape:window-maximized="1"
     inkscape:current-layer="splitsvg"
     width="621.179px"
     height="622.17902px" />
  <path
     style="fill:#d81940;stroke-width:1.93388"
     d="M 225.71855,510.24658 C 44.269594,489.31129 -57.867555,283.98505 34.817804,126.47893 138.47251,-49.668118 395.96616,-39.86834 485.89767,143.64627 574.30936,324.05959 425.78827,533.3303 225.71855,510.24658 Z m 71.62046,-4.89516 C 496.75132,472.98704 578.06753,226.1806 437.27636,80.621403 304.93407,-56.202793 76.271272,-4.2927096 16.241674,176.20295 -43.482516,355.78026 110.19282,535.72504 297.33901,505.35142 Z M 198.96997,345.27309 c -6.6796,-3.38247 -13.59903,-14.37264 -13.54287,-21.51015 0.0592,-7.52162 88.73343,-164.98247 98.98155,-175.76379 15.04358,-15.82628 40.15821,-5.5298 40.15821,16.46402 0,4.8637 -8.56634,21.56399 -34.03733,66.35663 -18.72053,32.92142 -36.22203,63.77473 -38.89222,68.56291 -26.90867,48.25227 -34.66208,55.00802 -52.66734,45.89038 z M 107.81149,307.52547 C 49.163472,268.94768 49.568242,269.30416 49.271282,255.96888 c -0.27883,-12.52041 3.97418,-16.69881 44.71934,-43.93491 42.876958,-28.6611 48.397868,-30.72061 60.458818,-22.55356 19.6694,13.31912 14.64075,30.15025 -14.9174,49.92926 -11.92589,7.98028 -21.71248,15.0129 -21.74797,15.62804 -0.0354,0.61514 9.47873,7.5337 21.1427,15.37458 29.09486,19.5584 34.41764,34.70378 17.27099,49.14263 -11.14474,9.38477 -18.67875,7.51172 -48.38627,-12.02945 z m 249.15998,13.97878 c -20.82988,-11.31071 -14.5806,-31.36901 16.18261,-51.94114 21.41112,-14.31816 21.41112,-14.31816 0.81818,-28.14496 -28.13945,-18.89377 -33.86686,-29.69053 -23.73309,-44.73937 12.06066,-17.91036 18.79226,-16.42004 65.26855,14.44991 63.59295,42.23901 63.5488,46.31465 -0.96512,89.10044 -39.47294,26.17856 -44.86878,28.17257 -57.57113,21.27512 z"
     id="path100" />
</svg>
