<?xml version="1.0" encoding="UTF-8" standalone="no"?>
<svg
   id="splitsvg"
   version="1.1"
   width="512"
   height="512"
   sodipodi:docname="profile.svg"
   inkscape:version="1.1.2 (b8e25be833, 2022-02-05)"
   xmlns:inkscape="http://www.inkscape.org/namespaces/inkscape"
   xmlns:sodipodi="http://sodipodi.sourceforge.net/DTD/sodipodi-0.dtd"
   xmlns="http://www.w3.org/2000/svg"
   xmlns:svg="http://www.w3.org/2000/svg">
  <defs
     id="defs15" />
  <sodipodi:namedview
     id="namedview13"
     pagecolor="#ffffff"
     bordercolor="#666666"
     borderopacity="1.0"
     inkscape:pageshadow="2"
     inkscape:pageopacity="0.0"
     inkscape:pagecheckerboard="0"
     showgrid="false"
     inkscape:zoom="0.32992424"
     inkscape:cx="487.99081"
     inkscape:cy="-104.56946"
     inkscape:window-width="1429"
     inkscape:window-height="972"
     inkscape:window-x="475"
     inkscape:window-y="64"
     inkscape:window-maximized="0"
     inkscape:current-layer="splitsvg"
     showguides="true"
     inkscape:guide-bbox="true" />
  <g
     id="g9220"
     transform="matrix(1.0010264,0,0,1.0001331,-171.02035,-352.19887)">
    <path
       style="fill:#de133b"
       d="M 402.01846,862.73747 C 185.23148,840.33235 92.660273,575.70396 248.64083,424.28501 389.49387,287.55116 626.29167,354.80476 674.50373,545.2355 717.64831,715.6504 575.98542,880.71711 402.01846,862.73747 Z"
       id="path9240" />
    <path
       style="fill:#ab1535"
       d="M 402.01846,861.73747 C 223.66915,843.30491 119.22474,654.71912 198.52103,494.30066 c 92.83785,-187.81338 363.15701,-187.81338 455.99486,0 88.43296,178.90217 -55.14185,387.83369 -252.49743,367.43681 z M 390.01321,696.8032 c 6.85933,-3.32054 8.72642,-6.08346 31.76273,-47.00254 2.9791,-5.29172 4.06192,-7.18985 39.36222,-69 39.59243,-69.3256 40.30599,-71.96896 22.75696,-84.30288 -14.33233,-10.07314 -25.99294,-3.65815 -40.54025,22.30288 -3.85242,6.875 -9.95704,17.675 -13.56582,24 -3.60878,6.325 -7.69249,13.525 -9.07492,16 -1.38242,2.475 -3.56699,6.17856 -4.85458,8.23013 -1.2876,2.05157 -2.34109,3.94811 -2.34109,4.21453 0,0.26642 -1.95858,3.76286 -4.3524,7.76987 -2.39382,4.00701 -8.77195,15.16047 -14.17362,24.78547 -5.40168,9.625 -13.19108,23.35 -17.30978,30.5 -12.20611,21.1896 -13.0548,22.70142 -16.6867,29.72504 -10.77574,20.83887 8.56026,42.68056 29.01725,32.7775 z m -69.28432,-22.446 c 11.72518,-4.89909 17.15093,-21.50513 10.6373,-32.55654 -3.0792,-5.22436 -2.68003,-4.91231 -26.84773,-20.98818 -10.175,-6.76821 -18.86704,-12.62922 -19.31565,-13.02448 -0.44861,-0.39525 8.39311,-6.86968 19.64827,-14.38763 30.63177,-20.46065 35.43369,-28.43958 26.38244,-43.8374 -10.81584,-18.39972 -19.06491,-16.55943 -65.71506,14.66044 -44.93018,30.06881 -45.40963,30.52363 -45.40963,43.07725 0,12.47665 0.65335,13.10247 43.40963,41.58109 44.67952,29.75962 45.78201,30.25055 57.21043,25.47545 z m 228.46646,0.19346 c 3.55884,-1.60539 72.05284,-47.23628 75.19276,-50.09361 10.05585,-9.15086 10.47228,-24.13495 0.92434,-33.26036 -8.19315,-7.83059 -74.73309,-51.25824 -80.06391,-52.25414 -18.731,-3.49933 -33.42882,15.80716 -24.84421,32.6344 2.75957,5.4092 5.80197,7.85774 28.19278,22.68973 l 19.57389,12.96602 -20.57627,13.67293 c -23.49723,15.61392 -25.89431,17.70681 -28.46355,24.85163 -6.43162,17.88573 12.9965,36.49264 30.06417,28.7934 z"
       id="path9238" />
    <path
       style="fill:#8f1531"
       d="M 402.01846,860.73992 C 225.24333,842.42206 120.91635,655.59836 198.50655,496.30066 c 92.13533,-189.15982 363.88849,-189.15982 456.02382,0 86.61421,177.82459 -56.74274,384.72532 -252.51191,364.43926 z M 389.99606,698.8115 c 7.30026,-3.53399 9.81032,-7.21034 32.77988,-48.01084 2.47941,-4.40414 0.50003,-0.92731 39.2484,-68.94054 l 32.72492,-57.44055 -0.43696,-8.32513 c -0.94277,-17.96211 -16.4888,-28.1582 -32.0622,-21.02846 -6.54125,2.99468 -9.0141,6.10088 -18.89523,23.73468 -3.85242,6.875 -9.95704,17.675 -13.56582,24 -3.60878,6.325 -7.69249,13.525 -9.07492,16 -1.38242,2.475 -3.56699,6.17856 -4.85458,8.23013 -1.2876,2.05157 -2.34109,3.94811 -2.34109,4.21453 0,0.26642 -1.95858,3.76286 -4.3524,7.76987 -2.39382,4.00701 -8.77195,15.16047 -14.17362,24.78547 -5.40168,9.625 -13.19108,23.35 -17.30978,30.5 -20.4385,35.48089 -20.1642,34.88417 -20.1642,43.86584 0,16.71794 17.54768,27.87245 32.4776,20.645 z m -69.22883,-22.47032 c 12.54129,-5.24008 17.68951,-22.43826 10.42667,-34.83136 -2.6867,-4.58451 -6.36178,-7.36417 -33.35588,-25.22883 l -12.18045,-8.061 20.09597,-13.45211 c 30.57244,-20.46499 35.16661,-28.66148 25.40306,-45.32171 -10.70833,-18.27239 -19.06513,-16.391 -65.63814,14.77724 -44.81228,29.98991 -44.7893,29.968 -45.77018,43.6312 -0.92812,12.92846 0.11921,13.95807 43.77018,43.02951 44.703,29.77209 45.7777,30.24998 57.24877,25.45706 z m 228.42947,0.20948 c 5.30512,-2.39198 71.94302,-47.26654 76.66334,-51.62578 9.15942,-8.45877 8.89025,-24.70451 -0.55899,-33.738 -8.18054,-7.82062 -74.72457,-51.24897 -80.05251,-52.24433 -22.68276,-4.2376 -37.34002,24.63723 -20.56771,40.51841 1.8357,1.73816 11.69869,8.71316 21.91777,15.5 22.29868,14.80931 22.36575,11.69226 -0.58014,26.96367 -25.60656,17.04218 -28.31905,20.20496 -28.44413,33.16587 -0.15146,15.69549 17.63565,27.76651 31.62237,21.46016 z"
       id="path9236" />
    <path
       style="fill:#7f112a"
       d="M 402.51846,859.78604 C 216.83117,840.46929 114.05404,636.48338 209.8054,477.30066 315.79321,301.10026 578.99381,319.73106 659.45341,509.12924 733.83107,684.21085 590.82897,879.37567 402.51846,859.78604 Z M 389.98305,700.8178 c 7.79742,-3.77466 9.65997,-6.47502 33.80929,-49.01714 1.09274,-1.925 5.0258,-8.9 8.74014,-15.5 3.71434,-6.6 19.22234,-33.825 34.46224,-60.5 l 27.70889,-48.5 -0.3764,-9.71198 c -0.75039,-19.36244 -15.83897,-29.95677 -32.07711,-22.5227 -6.54125,2.99468 -9.0141,6.10088 -18.89523,23.73468 -3.85242,6.875 -9.95704,17.675 -13.56582,24 -3.60878,6.325 -7.69249,13.525 -9.07492,16 -1.38242,2.475 -3.56699,6.17856 -4.85458,8.23013 -1.2876,2.05157 -2.34109,3.94811 -2.34109,4.21453 0,0.26642 -1.95858,3.76286 -4.3524,7.76987 -2.39382,4.00701 -8.77195,15.16047 -14.17362,24.78547 -5.40168,9.625 -13.19108,23.35 -17.30978,30.5 -20.88478,36.25562 -20.1642,34.63569 -20.1642,45.33123 0,17.51567 17.05505,28.64554 32.46459,21.18591 z m -69.2292,-22.47102 c 12.73875,-5.32259 18.08838,-23.80708 10.5858,-36.57696 -3.02108,-5.14209 -2.79118,-4.96085 -25.32119,-19.9607 -9.35,-6.22497 -17.36988,-11.64083 -17.82196,-12.03525 -0.45208,-0.39442 7.31254,-6.16284 17.25471,-12.81871 30.07435,-20.13354 29.51021,-19.48096 28.90008,-33.43125 -0.79656,-18.21256 -13.29643,-28.99409 -28.42051,-24.51358 -4.86061,1.43996 -72.52493,45.8003 -78.7539,51.63061 -10.07118,9.42662 -10.55681,27.21678 -0.99084,36.2979 3.50411,3.32651 65.49588,45.20001 74.83242,50.54697 4.76381,2.72819 14.27357,3.14306 19.73539,0.86097 z m 228.44285,0.20388 c 2.4237,-1.0928 53.26437,-34.70843 68.32176,-45.17405 17.5639,-12.20776 20.7991,-29.74592 7.78259,-42.18973 -8.18054,-7.82062 -74.72457,-51.24897 -80.05251,-52.24433 -15.31244,-2.86068 -27.69749,8.60286 -27.72031,25.65777 -0.0162,12.11634 2.23387,14.60495 29.53975,32.67122 l 18.04953,11.94203 -19.04953,12.67816 c -26.09544,17.36748 -28.37761,20.10598 -28.49365,34.19105 -0.13857,16.82023 17.05472,29.03616 31.62237,22.46788 z"
       id="path9234" />
    <path
       style="fill:#212427"
       d="M 402.51846,858.78604 C 190.34706,836.71419 98.128344,579.9543 248.40022,429.68242 387.5315,290.55114 625.31218,357.76865 671.5475,549.30066 711.84996,716.25551 572.57322,876.47655 402.51846,858.78604 Z M 389.97287,702.82273 c 8.11434,-3.92808 11.98703,-9.49426 34.80307,-50.02207 2.96762,-5.27133 4.2845,-7.58517 35.00155,-61.5 39.14994,-68.71633 34.97378,-59.9335 34.56027,-72.6832 -0.51354,-15.83394 -7.3513,-24.32928 -20.54515,-25.52566 -12.71315,-1.15279 -17.78737,3.13309 -30.43774,25.70886 -3.85242,6.875 -9.95704,17.675 -13.56582,24 -3.60878,6.325 -7.69249,13.525 -9.07492,16 -1.38242,2.475 -3.56699,6.17856 -4.85458,8.23013 -1.2876,2.05157 -2.34109,3.94811 -2.34109,4.21453 0,0.26642 -1.95858,3.76286 -4.3524,7.76987 -2.39382,4.00701 -8.77195,15.16047 -14.17362,24.78547 -5.40168,9.625 -13.19108,23.35 -17.30978,30.5 -21.18726,36.78073 -20.1642,34.41529 -20.1642,46.62204 0,18.35419 16.61662,29.56697 32.45441,21.90003 z m -69.28056,-21.45024 c 4.98831,-2.08425 12.54685,-10.56613 13.38173,-15.01642 1.41323,-7.53314 0.0242,-19.89123 -2.7703,-24.64752 -2.9664,-5.04884 -2.69801,-4.83652 -25.05701,-19.82233 l -16.77174,-11.24102 18.21194,-12.17227 c 26.7209,-17.85938 27.44462,-18.83036 26.64036,-35.74205 -0.82916,-17.43527 -13.60074,-28.1038 -28.39651,-23.72055 -4.86061,1.43996 -72.52493,45.8003 -78.7539,51.63061 -9.7967,9.1697 -10.49009,29.31885 -1.33259,38.72346 3.58106,3.67769 63.60038,44.4932 75.17417,51.12141 4.74336,2.71647 14.26723,3.14571 19.67385,0.88668 z m 228.46134,0.17817 c 2.32275,-1.01348 35.93886,-23.23709 67.86481,-44.86541 15.15411,-10.2662 18.91221,-20.03142 14.03259,-36.4629 -2.53458,-8.53487 -73.0513,-58.89762 -85.80251,-61.2798 -15.62542,-2.91915 -27.72542,8.59537 -27.69835,26.35811 0.0218,14.29942 1.95141,16.65111 27.71972,33.78311 12.76383,8.486 16.92592,11.73578 16,12.49291 -0.6883,0.56283 -8.67645,5.96872 -17.75145,12.0131 -23.38185,15.5734 -25.83767,18.67041 -25.93855,32.71088 -0.13937,19.39679 15.79094,32.1365 31.57374,25.25 z"
       id="path9232" />
    <path
       style="fill:#1f2225"
       d="M 402.51846,858.78604 C 190.34706,836.71419 98.128344,579.9543 248.40022,429.68242 387.5315,290.55114 625.31218,357.76865 671.5475,549.30066 711.84996,716.25551 572.57322,876.47655 402.51846,858.78604 Z M 389.97287,702.82273 c 8.11434,-3.92808 11.98703,-9.49426 34.80307,-50.02207 2.96762,-5.27133 4.2845,-7.58517 35.00155,-61.5 39.14994,-68.71633 34.97378,-59.9335 34.56027,-72.6832 -0.51354,-15.83394 -7.3513,-24.32928 -20.54515,-25.52566 -12.71315,-1.15279 -17.78737,3.13309 -30.43774,25.70886 -3.85242,6.875 -9.95704,17.675 -13.56582,24 -3.60878,6.325 -7.69249,13.525 -9.07492,16 -1.38242,2.475 -3.56699,6.17856 -4.85458,8.23013 -1.2876,2.05157 -2.34109,3.94811 -2.34109,4.21453 0,0.26642 -1.95858,3.76286 -4.3524,7.76987 -2.39382,4.00701 -8.77195,15.16047 -14.17362,24.78547 -5.40168,9.625 -13.19108,23.35 -17.30978,30.5 -21.18726,36.78073 -20.1642,34.41529 -20.1642,46.62204 0,18.35419 16.61662,29.56697 32.45441,21.90003 z m -69.28056,-21.45024 c 4.98831,-2.08425 12.54685,-10.56613 13.38173,-15.01642 1.41323,-7.53314 0.0242,-19.89123 -2.7703,-24.64752 -2.9664,-5.04884 -2.69801,-4.83652 -25.05701,-19.82233 l -16.77174,-11.24102 18.21194,-12.17227 c 26.7209,-17.85938 27.44462,-18.83036 26.64036,-35.74205 -0.82916,-17.43527 -13.60074,-28.1038 -28.39651,-23.72055 -4.86061,1.43996 -72.52493,45.8003 -78.7539,51.63061 -9.7967,9.1697 -10.49009,29.31885 -1.33259,38.72346 3.58106,3.67769 63.60038,44.4932 75.17417,51.12141 4.74336,2.71647 14.26723,3.14571 19.67385,0.88668 z m 228.46134,0.17817 c 2.32275,-1.01348 35.93886,-23.23709 67.86481,-44.86541 15.15411,-10.2662 18.91221,-20.03142 14.03259,-36.4629 -2.53458,-8.53487 -73.0513,-58.89762 -85.80251,-61.2798 -15.62542,-2.91915 -27.72542,8.59537 -27.69835,26.35811 0.0218,14.29942 1.95141,16.65111 27.71972,33.78311 12.76383,8.486 16.92592,11.73578 16,12.49291 -0.6883,0.56283 -8.67645,5.96872 -17.75145,12.0131 -23.38185,15.5734 -25.83767,18.67041 -25.93855,32.71088 -0.13937,19.39679 15.79094,32.1365 31.57374,25.25 z"
       id="path9230" />
    <path
       style="fill:#1e2226"
       d="M 402.51846,858.78604 C 190.34706,836.71419 98.128344,579.9543 248.40022,429.68242 387.5315,290.55114 625.31218,357.76865 671.5475,549.30066 711.84996,716.25551 572.57322,876.47655 402.51846,858.78604 Z M 389.97287,702.82273 c 8.11434,-3.92808 11.98703,-9.49426 34.80307,-50.02207 2.96762,-5.27133 4.2845,-7.58517 35.00155,-61.5 39.14994,-68.71633 34.97378,-59.9335 34.56027,-72.6832 -0.51354,-15.83394 -7.3513,-24.32928 -20.54515,-25.52566 -12.71315,-1.15279 -17.78737,3.13309 -30.43774,25.70886 -3.85242,6.875 -9.95704,17.675 -13.56582,24 -3.60878,6.325 -7.69249,13.525 -9.07492,16 -1.38242,2.475 -3.56699,6.17856 -4.85458,8.23013 -1.2876,2.05157 -2.34109,3.94811 -2.34109,4.21453 0,0.26642 -1.95858,3.76286 -4.3524,7.76987 -2.39382,4.00701 -8.77195,15.16047 -14.17362,24.78547 -5.40168,9.625 -13.19108,23.35 -17.30978,30.5 -21.18726,36.78073 -20.1642,34.41529 -20.1642,46.62204 0,18.35419 16.61662,29.56697 32.45441,21.90003 z m -69.28056,-21.45024 c 4.98831,-2.08425 12.54685,-10.56613 13.38173,-15.01642 1.41323,-7.53314 0.0242,-19.89123 -2.7703,-24.64752 -2.9664,-5.04884 -2.69801,-4.83652 -25.05701,-19.82233 l -16.77174,-11.24102 18.21194,-12.17227 c 26.7209,-17.85938 27.44462,-18.83036 26.64036,-35.74205 -0.82916,-17.43527 -13.60074,-28.1038 -28.39651,-23.72055 -4.86061,1.43996 -72.52493,45.8003 -78.7539,51.63061 -9.7967,9.1697 -10.49009,29.31885 -1.33259,38.72346 3.58106,3.67769 63.60038,44.4932 75.17417,51.12141 4.74336,2.71647 14.26723,3.14571 19.67385,0.88668 z m 228.46134,0.17817 c 2.32275,-1.01348 35.93886,-23.23709 67.86481,-44.86541 15.15411,-10.2662 18.91221,-20.03142 14.03259,-36.4629 -2.53458,-8.53487 -73.0513,-58.89762 -85.80251,-61.2798 -15.62542,-2.91915 -27.72542,8.59537 -27.69835,26.35811 0.0218,14.29942 1.95141,16.65111 27.71972,33.78311 12.76383,8.486 16.92592,11.73578 16,12.49291 -0.6883,0.56283 -8.67645,5.96872 -17.75145,12.0131 -23.38185,15.5734 -25.83767,18.67041 -25.93855,32.71088 -0.13937,19.39679 15.79094,32.1365 31.57374,25.25 z"
       id="path9228" />
    <path
       style="fill:#1f1f1f"
       d="M 402.51846,858.78604 C 190.34706,836.71419 98.128344,579.9543 248.40022,429.68242 387.5315,290.55114 625.31218,357.76865 671.5475,549.30066 711.84996,716.25551 572.57322,876.47655 402.51846,858.78604 Z M 389.97287,702.82273 c 8.11434,-3.92808 11.98703,-9.49426 34.80307,-50.02207 2.96762,-5.27133 4.2845,-7.58517 35.00155,-61.5 39.14994,-68.71633 34.97378,-59.9335 34.56027,-72.6832 -0.51354,-15.83394 -7.3513,-24.32928 -20.54515,-25.52566 -12.71315,-1.15279 -17.78737,3.13309 -30.43774,25.70886 -3.85242,6.875 -9.95704,17.675 -13.56582,24 -3.60878,6.325 -7.69249,13.525 -9.07492,16 -1.38242,2.475 -3.56699,6.17856 -4.85458,8.23013 -1.2876,2.05157 -2.34109,3.94811 -2.34109,4.21453 0,0.26642 -1.95858,3.76286 -4.3524,7.76987 -2.39382,4.00701 -8.77195,15.16047 -14.17362,24.78547 -5.40168,9.625 -13.19108,23.35 -17.30978,30.5 -21.18726,36.78073 -20.1642,34.41529 -20.1642,46.62204 0,18.35419 16.61662,29.56697 32.45441,21.90003 z m -69.28056,-21.45024 c 4.98831,-2.08425 12.54685,-10.56613 13.38173,-15.01642 1.41323,-7.53314 0.0242,-19.89123 -2.7703,-24.64752 -2.9664,-5.04884 -2.69801,-4.83652 -25.05701,-19.82233 l -16.77174,-11.24102 18.21194,-12.17227 c 26.7209,-17.85938 27.44462,-18.83036 26.64036,-35.74205 -0.82916,-17.43527 -13.60074,-28.1038 -28.39651,-23.72055 -4.86061,1.43996 -72.52493,45.8003 -78.7539,51.63061 -9.7967,9.1697 -10.49009,29.31885 -1.33259,38.72346 3.58106,3.67769 63.60038,44.4932 75.17417,51.12141 4.74336,2.71647 14.26723,3.14571 19.67385,0.88668 z m 228.46134,0.17817 c 2.32275,-1.01348 35.93886,-23.23709 67.86481,-44.86541 15.15411,-10.2662 18.91221,-20.03142 14.03259,-36.4629 -2.53458,-8.53487 -73.0513,-58.89762 -85.80251,-61.2798 -15.62542,-2.91915 -27.72542,8.59537 -27.69835,26.35811 0.0218,14.29942 1.95141,16.65111 27.71972,33.78311 12.76383,8.486 16.92592,11.73578 16,12.49291 -0.6883,0.56283 -8.67645,5.96872 -17.75145,12.0131 -23.38185,15.5734 -25.83767,18.67041 -25.93855,32.71088 -0.13937,19.39679 15.79094,32.1365 31.57374,25.25 z"
       id="path9226" />
    <path
       style="fill:#1b1e21"
       d="M 402.51846,858.78604 C 190.34706,836.71419 98.128344,579.9543 248.40022,429.68242 387.5315,290.55114 625.31218,357.76865 671.5475,549.30066 711.84996,716.25551 572.57322,876.47655 402.51846,858.78604 Z M 389.97287,702.82273 c 8.11434,-3.92808 11.98703,-9.49426 34.80307,-50.02207 2.96762,-5.27133 4.2845,-7.58517 35.00155,-61.5 39.14994,-68.71633 34.97378,-59.9335 34.56027,-72.6832 -0.51354,-15.83394 -7.3513,-24.32928 -20.54515,-25.52566 -12.71315,-1.15279 -17.78737,3.13309 -30.43774,25.70886 -3.85242,6.875 -9.95704,17.675 -13.56582,24 -3.60878,6.325 -7.69249,13.525 -9.07492,16 -1.38242,2.475 -3.56699,6.17856 -4.85458,8.23013 -1.2876,2.05157 -2.34109,3.94811 -2.34109,4.21453 0,0.26642 -1.95858,3.76286 -4.3524,7.76987 -2.39382,4.00701 -8.77195,15.16047 -14.17362,24.78547 -5.40168,9.625 -13.19108,23.35 -17.30978,30.5 -21.18726,36.78073 -20.1642,34.41529 -20.1642,46.62204 0,18.35419 16.61662,29.56697 32.45441,21.90003 z m -69.28056,-21.45024 c 4.98831,-2.08425 12.54685,-10.56613 13.38173,-15.01642 1.41323,-7.53314 0.0242,-19.89123 -2.7703,-24.64752 -2.9664,-5.04884 -2.69801,-4.83652 -25.05701,-19.82233 l -16.77174,-11.24102 18.21194,-12.17227 c 26.7209,-17.85938 27.44462,-18.83036 26.64036,-35.74205 -0.82916,-17.43527 -13.60074,-28.1038 -28.39651,-23.72055 -4.86061,1.43996 -72.52493,45.8003 -78.7539,51.63061 -9.7967,9.1697 -10.49009,29.31885 -1.33259,38.72346 3.58106,3.67769 63.60038,44.4932 75.17417,51.12141 4.74336,2.71647 14.26723,3.14571 19.67385,0.88668 z m 228.46134,0.17817 c 2.32275,-1.01348 35.93886,-23.23709 67.86481,-44.86541 15.15411,-10.2662 18.91221,-20.03142 14.03259,-36.4629 -2.53458,-8.53487 -73.0513,-58.89762 -85.80251,-61.2798 -15.62542,-2.91915 -27.72542,8.59537 -27.69835,26.35811 0.0218,14.29942 1.95141,16.65111 27.71972,33.78311 12.76383,8.486 16.92592,11.73578 16,12.49291 -0.6883,0.56283 -8.67645,5.96872 -17.75145,12.0131 -23.76578,15.82912 -25.8579,18.54985 -25.92217,33.71088 -0.0786,18.53192 16.12515,30.98352 31.55736,24.25 z"
       id="path9224" />
    <path
       style="fill:#1a1e22"
       d="M 402.51846,858.78604 C 190.34706,836.71419 98.128344,579.9543 248.40022,429.68242 387.5315,290.55114 625.31218,357.76865 671.5475,549.30066 711.84996,716.25551 572.57322,876.47655 402.51846,858.78604 Z M 389.97287,702.82273 c 8.11434,-3.92808 11.98703,-9.49426 34.80307,-50.02207 2.96762,-5.27133 4.2845,-7.58517 35.00155,-61.5 39.14994,-68.71633 34.97378,-59.9335 34.56027,-72.6832 -0.51354,-15.83394 -7.3513,-24.32928 -20.54515,-25.52566 -12.71315,-1.15279 -17.78737,3.13309 -30.43774,25.70886 -3.85242,6.875 -9.95704,17.675 -13.56582,24 -3.60878,6.325 -7.69249,13.525 -9.07492,16 -1.38242,2.475 -3.56699,6.17856 -4.85458,8.23013 -1.2876,2.05157 -2.34109,3.94811 -2.34109,4.21453 0,0.26642 -1.95858,3.76286 -4.3524,7.76987 -2.39382,4.00701 -8.77195,15.16047 -14.17362,24.78547 -5.40168,9.625 -13.19108,23.35 -17.30978,30.5 -21.18726,36.78073 -20.1642,34.41529 -20.1642,46.62204 0,18.35419 16.61662,29.56697 32.45441,21.90003 z m -69.28056,-21.45024 c 4.98831,-2.08425 12.54685,-10.56613 13.38173,-15.01642 1.41323,-7.53314 0.0242,-19.89123 -2.7703,-24.64752 -2.9664,-5.04884 -2.69801,-4.83652 -25.05701,-19.82233 l -16.77174,-11.24102 18.21194,-12.17227 c 26.7209,-17.85938 27.44462,-18.83036 26.64036,-35.74205 -0.82916,-17.43527 -13.60074,-28.1038 -28.39651,-23.72055 -4.86061,1.43996 -72.52493,45.8003 -78.7539,51.63061 -9.7967,9.1697 -10.49009,29.31885 -1.33259,38.72346 3.58106,3.67769 63.60038,44.4932 75.17417,51.12141 4.74336,2.71647 14.26723,3.14571 19.67385,0.88668 z m 228.46134,0.17817 c 2.32275,-1.01348 35.93886,-23.23709 67.86481,-44.86541 15.15411,-10.2662 18.91221,-20.03142 14.03259,-36.4629 -2.53458,-8.53487 -73.0513,-58.89762 -85.80251,-61.2798 -15.62542,-2.91915 -27.72542,8.59537 -27.69835,26.35811 0.0218,14.29942 1.95141,16.65111 27.71972,33.78311 12.76383,8.486 16.92592,11.73578 16,12.49291 -0.6883,0.56283 -8.67645,5.96872 -17.75145,12.0131 -23.76578,15.82912 -25.8579,18.54985 -25.92217,33.71088 -0.0786,18.53192 16.12515,30.98352 31.55736,24.25 z"
       id="path9222" />
  </g>
</svg>
