<?xml version="1.0" encoding="UTF-8" standalone="no"?>
<!-- Created with Inkscape (http://www.inkscape.org/) -->

<svg
   width="135.15318mm"
   height="135.21779mm"
   viewBox="0 0 135.15318 135.21779"
   version="1.1"
   id="svg5"
   inkscape:version="1.1.2 (b8e25be833, 2022-02-05)"
   sodipodi:docname="newLogoMinimal.svg"
   xmlns:inkscape="http://www.inkscape.org/namespaces/inkscape"
   xmlns:sodipodi="http://sodipodi.sourceforge.net/DTD/sodipodi-0.dtd"
   xmlns="http://www.w3.org/2000/svg"
   xmlns:svg="http://www.w3.org/2000/svg">
  <sodipodi:namedview
     id="namedview7"
     pagecolor="#ffffff"
     bordercolor="#666666"
     borderopacity="1.0"
     inkscape:pageshadow="2"
     inkscape:pageopacity="0.0"
     inkscape:pagecheckerboard="0"
     inkscape:document-units="mm"
     showgrid="false"
     inkscape:zoom="0.77593294"
     inkscape:cx="248.08845"
     inkscape:cy="358.27838"
     inkscape:window-width="1920"
     inkscape:window-height="1057"
     inkscape:window-x="-8"
     inkscape:window-y="-8"
     inkscape:window-maximized="1"
     inkscape:current-layer="layer1" />
  <defs
     id="defs2" />
  <g
     inkscape:label="Réteg 1"
     inkscape:groupmode="layer"
     id="layer1"
     transform="translate(-39.152456,-26.535928)">
    <g
       id="g39"
       transform="translate(-10.229621,-56.262916)">
      <path
         style="fill:#f9f9f9;stroke-width:0.264583"
         d="m 114.61348,198.33116 c -0.42132,-0.40018 -7.10843,-12.03854 -14.860239,-25.86302 -7.75181,-13.82448 -14.314598,-25.41936 -14.583971,-25.76641 -0.466635,-0.60119 -0.489767,-1.56482 -0.489767,-20.40338 0,-19.1233 0.01675,-19.79367 0.509942,-20.42067 0.280469,-0.35656 1.007877,-0.87283 1.616461,-1.14726 l 1.106517,-0.49897 1.221062,0.64856 c 1.050182,0.55779 3.063362,2.98123 14.385665,17.3173 7.24054,9.16781 13.28832,16.66875 13.43952,16.66875 0.1512,0 6.19898,-7.50094 13.43951,-16.66875 11.32231,-14.33607 13.33549,-16.75951 14.38567,-17.3173 l 1.22106,-0.64856 1.10652,0.49897 c 0.60858,0.27443 1.33599,0.7907 1.61646,1.14726 0.4932,0.627 0.50994,1.29737 0.50994,20.42067 0,18.83856 -0.0231,19.80219 -0.48976,20.40338 -0.26938,0.34705 -6.83216,11.94193 -14.58397,25.76641 -7.75182,13.82448 -14.43892,25.46284 -14.86024,25.86302 -0.66003,0.62691 -0.98457,0.72761 -2.34519,0.72761 -1.36062,0 -1.68516,-0.1007 -2.34519,-0.72761 z m 1.67088,-3.54802 c 0.9099,-0.41457 1.95345,0.0691 2.33607,1.08279 0.2753,0.72937 0.92842,-0.37499 14.28178,-24.14902 7.69631,-13.70234 14.28218,-25.33647 14.63529,-25.85361 l 0.642,-0.94027 v -18.7254 -18.7254 l -0.7734,-0.7734 c -0.86147,-0.86146 -1.48243,-0.96409 -2.31306,-0.38229 -0.30711,0.2151 -6.72154,8.19229 -14.2543,17.72708 -7.53276,9.53479 -13.77879,17.33598 -13.88007,17.33598 -0.10128,0 -6.34732,-7.80119 -13.88007,-17.33598 -7.532761,-9.53479 -13.947194,-17.51198 -14.254301,-17.72708 -0.830636,-0.5818 -1.451597,-0.47917 -2.313065,0.38229 l -0.773398,0.7734 0.0048,18.73963 0.0048,18.73962 0.722791,1.0767 c 0.397534,0.59219 6.97357,12.20966 14.613413,25.8166 13.39005,23.84833 13.90208,24.71296 14.20851,23.99274 0.17483,-0.41092 0.62132,-0.8854 0.99218,-1.05438 z"
         id="path45" />
      <path
         style="fill:#dd123a;stroke-width:0.264583"
         d="M 101.08367,171.84478 C 93.443825,158.23784 86.86779,146.62037 86.470256,146.02818 l -0.722792,-1.0767 -0.0048,-18.73962 -0.0048,-18.73963 0.773398,-0.7734 c 0.861468,-0.86146 1.482429,-0.96409 2.313065,-0.38229 0.307107,0.2151 6.72154,8.19229 14.254303,17.72708 7.53275,9.53479 13.77879,17.33598 13.88007,17.33598 0.10128,0 6.34731,-7.80119 13.88007,-17.33598 7.53276,-9.53479 13.94719,-17.51198 14.2543,-17.72708 0.83063,-0.5818 1.45159,-0.47917 2.31306,0.38229 l 0.7734,0.7734 v 18.7254 18.7254 l -0.642,0.94027 c -0.35311,0.51714 -6.93898,12.15127 -14.63529,25.85361 -13.35336,23.77403 -14.00648,24.87839 -14.28178,24.14902 -0.60764,-1.60982 -2.64802,-1.62723 -3.32826,-0.0284 -0.30642,0.72022 -0.81846,-0.14441 -14.2085,-23.99274 z"
         id="path43" />
      <path
         style="fill:#a22633;stroke-width:0.264583"
         d="M 111.93158,217.94307 C 95.51237,216.40858 81.365253,210.00614 69.890363,198.91683 59.027417,188.4189 52.219644,175.02101 49.837398,159.45202 c -0.607095,-3.96763 -0.607095,-14.18554 0,-18.15317 2.280419,-14.90351 8.440786,-27.50009 18.579872,-37.99172 10.497928,-10.862946 23.895822,-17.670719 39.46482,-20.052965 3.96762,-0.607095 14.18553,-0.607095 18.15316,0 15.56899,2.382246 28.96689,9.190019 39.46482,20.052965 10.13908,10.49163 16.29945,23.08821 18.57987,37.99172 0.60709,3.96763 0.60709,14.18554 0,18.15317 -2.38225,15.56899 -9.19002,28.96688 -20.05297,39.46481 -10.45656,10.1052 -23.31778,16.40458 -37.85986,18.54362 -2.66398,0.39186 -11.8679,0.70389 -14.23553,0.48262 z m 13.17719,-1.54955 c 25.66785,-3.69458 46.84545,-21.32902 55.03685,-45.8288 2.31179,-6.91436 3.30368,-12.97596 3.30368,-20.18929 0,-21.34188 -10.60316,-41.35795 -28.80823,-54.382601 -8.31293,-5.947407 -18.62101,-10.004546 -29.66415,-11.675457 -3.86975,-0.585523 -12.16675,-0.585523 -16.0365,0 -15.504699,2.345979 -28.966158,9.184389 -39.464817,20.048088 -10.140091,10.49267 -16.329686,23.15234 -18.574998,37.99173 -0.585523,3.86974 -0.585523,12.16675 0,16.03649 2.345979,15.5047 9.184389,28.96616 20.048091,39.46482 11.475697,11.09009 25.606859,17.48544 42.041224,19.02662 2.14316,0.20098 9.33363,-0.0907 12.11885,-0.4916 z"
         id="path41" />
    </g>
  </g>
</svg>
