<?xml version="1.0" encoding="UTF-8" standalone="no"?>
<!-- Created with Inkscape (http://www.inkscape.org/) -->

<svg
   width="135.15318mm"
   height="135.21779mm"
   viewBox="0 0 135.15318 135.21779"
   version="1.1"
   id="svg5"
   inkscape:version="1.1.2 (b8e25be833, 2022-02-05)"
   sodipodi:docname="newLogoA.svg"
   xmlns:inkscape="http://www.inkscape.org/namespaces/inkscape"
   xmlns:sodipodi="http://sodipodi.sourceforge.net/DTD/sodipodi-0.dtd"
   xmlns="http://www.w3.org/2000/svg"
   xmlns:svg="http://www.w3.org/2000/svg">
  <sodipodi:namedview
     id="namedview7"
     pagecolor="#ffffff"
     bordercolor="#666666"
     borderopacity="1.0"
     inkscape:pageshadow="2"
     inkscape:pageopacity="0.0"
     inkscape:pagecheckerboard="0"
     inkscape:document-units="mm"
     showgrid="false"
     showguides="false"
     inkscape:snap-nodes="true"
     inkscape:snap-bbox="false"
     inkscape:snap-global="true"
     fit-margin-top="0"
     fit-margin-left="0"
     fit-margin-right="0"
     fit-margin-bottom="0"
     inkscape:zoom="0.66657326"
     inkscape:cx="543.07609"
     inkscape:cy="354.79971"
     inkscape:window-width="1093"
     inkscape:window-height="952"
     inkscape:window-x="597"
     inkscape:window-y="66"
     inkscape:window-maximized="0"
     inkscape:current-layer="layer1" />
  <defs
     id="defs2" />
  <g
     inkscape:label="Réteg 1"
     inkscape:groupmode="layer"
     id="layer1">
    <g
       id="g139"
       transform="translate(-0.15673892,-0.15673892)">
      <path
         style="fill:#f9f9f9;stroke-width:0.264583"
         d="M 65.388143,115.68906 C 64.966823,115.28887 58.279715,103.65052 50.527903,89.826037 42.776093,76.001559 36.213305,64.406674 35.943932,64.059628 35.477268,63.458399 35.454165,62.493302 35.454165,43.600214 v -19.82842 l 0.773398,-0.773398 c 0.678667,-0.678668 0.963123,-0.773397 2.322378,-0.773397 0.940506,0 1.768959,0.154078 2.108975,0.392234 0.307996,0.215729 6.486606,7.895259 13.730244,17.065624 7.243641,9.170366 13.248518,16.67339 13.34417,16.67339 0.09565,0 6.100529,-7.503024 13.34417,-16.67339 7.243638,-9.170365 13.422248,-16.849895 13.730244,-17.065624 0.340016,-0.238156 1.168469,-0.392234 2.108975,-0.392234 1.359255,0 1.643711,0.09473 2.322378,0.773397 l 0.773403,0.773398 v 19.82842 c 0,18.893088 -0.0231,19.858185 -0.489772,20.459414 -0.269373,0.347046 -6.832161,11.941931 -14.583971,25.766409 -7.751812,13.824483 -14.43892,25.462833 -14.86024,25.863023 -0.660024,0.62691 -0.98457,0.7276 -2.345187,0.7276 -1.360617,0 -1.685163,-0.10069 -2.345187,-0.7276 z m 1.670881,-3.54802 c 0.909902,-0.41458 1.953445,0.0691 2.336064,1.08279 0.275307,0.72937 0.928425,-0.37499 14.281782,-24.149027 7.696308,-13.702341 14.282186,-25.336467 14.635288,-25.853611 l 0.642004,-0.940263 V 43.555529 24.830127 L 98.180764,24.05673 c -0.861468,-0.861469 -1.482429,-0.964099 -2.313065,-0.382298 -0.307107,0.215104 -6.72154,8.192293 -14.254296,17.727082 -7.532759,9.534792 -13.778791,17.335983 -13.880073,17.335983 -0.101282,0 -6.347314,-7.801191 -13.880073,-17.335983 C 46.320501,31.866725 39.906068,23.889536 39.598961,23.674432 38.768325,23.092631 38.147364,23.195261 37.285896,24.05673 l -0.773398,0.773397 0.0048,18.739623 0.0048,18.739622 0.722791,1.076706 c 0.397534,0.592188 6.97357,12.209655 14.613413,25.816593 13.390046,23.848329 13.902081,24.712959 14.208506,23.992749 0.174834,-0.41093 0.621318,-0.8854 0.992187,-1.05438 z"
         id="path145" />
      <path
         style="fill:#a22633;stroke-width:0.264583"
         d="M 62.706247,135.30096 C 46.287032,133.76648 32.139915,127.36404 20.665025,116.27473 9.8020794,105.7768 2.9943061,92.378906 0.61206036,76.809911 c -0.60709525,-3.967628 -0.60709525,-14.185534 0,-18.153162 C 2.8924788,43.753239 9.0528461,31.156652 19.191932,20.665025 29.68986,9.8020794 43.087754,2.9943061 58.656749,0.61206036 c 3.967628,-0.60709525 14.185534,-0.60709525 18.153162,0 C 92.378906,2.9943061 105.7768,9.8020794 116.27473,20.665025 c 10.13908,10.491627 16.29945,23.088214 18.57987,37.991724 0.60709,3.967628 0.60709,14.185534 0,18.153162 -2.38225,15.568995 -9.19002,28.966889 -20.05296,39.464819 -10.45657,10.1052 -23.31779,16.40458 -37.859871,18.54362 -2.663979,0.39185 -11.867893,0.70389 -14.235522,0.48261 z m 13.177189,-1.54954 c 25.667844,-3.69459 46.845444,-21.32902 55.036844,-45.8288 2.31179,-6.914367 3.30368,-12.975968 3.30368,-20.18929 0,-21.341889 -10.60316,-41.357958 -28.80823,-54.382606 C 97.102801,7.4033167 86.794719,3.3461784 75.751578,1.6752667 c -3.869746,-0.5855222 -12.16675,-0.5855222 -16.036496,0 C 44.210383,4.021246 30.748924,10.859656 20.250265,21.723358 10.110174,32.216025 3.920579,44.875699 1.6752667,59.715082 c -0.5855222,3.869746 -0.5855222,12.16675 0,16.036496 2.3459793,15.504699 9.1843893,28.966162 20.0480913,39.464812 11.475697,11.09009 25.606859,17.48544 42.041222,19.02662 2.143162,0.20099 9.333635,-0.0907 12.118856,-0.49159 z M 51.858331,89.202671 C 44.218487,75.595733 37.642452,63.978266 37.244918,63.386078 l -0.722792,-1.076706 -0.0048,-18.739622 -0.0048,-18.739623 0.773398,-0.773397 c 0.861468,-0.861469 1.482429,-0.964099 2.313065,-0.382298 0.307107,0.215104 6.72154,8.192293 14.254296,17.727082 7.532759,9.534792 13.778791,17.335983 13.880073,17.335983 0.101282,0 6.347314,-7.801191 13.880073,-17.335983 7.532756,-9.534789 13.947189,-17.511978 14.254296,-17.727082 0.830636,-0.581801 1.451597,-0.479171 2.313065,0.382298 l 0.773398,0.773397 v 18.725402 18.7254 l -0.642004,0.940263 C 97.959056,63.738336 91.373178,75.372462 83.67687,89.074803 70.323513,112.84884 69.670395,113.9532 69.395088,113.22383 c -0.60764,-1.60982 -2.648013,-1.62724 -3.328252,-0.0284 -0.306424,0.72021 -0.818459,-0.14442 -14.208505,-23.992749 z"
         id="path143" />
      <path
         style="fill:#191d21;stroke-width:0.264583"
         d="M 63.76458,134.24301 C 47.330217,132.70183 33.199055,126.30648 21.723358,115.21639 10.859656,104.71774 4.021246,91.256277 1.6752667,75.751578 c -0.5855222,-3.869746 -0.5855222,-12.16675 0,-16.036496 C 3.920579,44.875699 10.110174,32.216025 20.250265,21.723358 30.748924,10.859656 44.210383,4.021246 59.715082,1.6752667 c 3.869746,-0.5855222 12.16675,-0.5855222 16.036496,0 15.504699,2.3459793 28.966162,9.1843893 39.464812,20.0480913 10.14009,10.492667 16.32969,23.152341 18.575,37.991724 0.58553,3.869746 0.58553,12.16675 0,16.036496 -2.34598,15.504699 -9.18439,28.966162 -20.04809,39.464812 -10.4584,10.10698 -23.431562,16.45824 -37.859864,18.53503 -2.785221,0.4009 -9.975694,0.69258 -12.118856,0.49159 z m 6.313937,-18.55395 c 0.42132,-0.40019 7.108428,-12.03854 14.86024,-25.863023 7.75181,-13.824478 14.314598,-25.419363 14.583971,-25.766409 0.466664,-0.601229 0.489772,-1.566326 0.489772,-20.459414 v -19.82842 l -0.773403,-0.773398 c -0.678667,-0.678668 -0.963123,-0.773397 -2.322378,-0.773397 -0.940506,0 -1.768959,0.154078 -2.108975,0.392234 -0.307996,0.215729 -6.486606,7.895259 -13.730244,17.065624 -7.243641,9.170366 -13.248518,16.67339 -13.34417,16.67339 -0.09565,0 -6.100529,-7.503024 -13.34417,-16.67339 C 47.145522,30.512492 40.966912,22.832962 40.658916,22.617233 40.3189,22.379077 39.490447,22.224999 38.549941,22.224999 c -1.359255,0 -1.643711,0.09473 -2.322378,0.773397 l -0.773398,0.773398 v 19.82842 c 0,18.893088 0.0231,19.858185 0.489767,20.459414 0.269373,0.347046 6.832161,11.941931 14.583971,25.766409 7.751812,13.824483 14.43892,25.462833 14.86024,25.863023 0.660024,0.62691 0.98457,0.7276 2.345187,0.7276 1.360617,0 1.685163,-0.10069 2.345187,-0.7276 z"
         id="path141" />
    </g>
  </g>
</svg>
